<?xml version="1.0" encoding="UTF-8" standalone="no"?>
<!DOCTYPE svg PUBLIC "-//W3C//DTD SVG 1.1//EN" "http://www.w3.org/Graphics/SVG/1.1/DTD/svg11.dtd">
<svg width="100%" height="100%" viewBox="0 0 2334 939" version="1.1" xmlns="http://www.w3.org/2000/svg" xmlns:xlink="http://www.w3.org/1999/xlink" xml:space="preserve" xmlns:serif="http://www.serif.com/" style="fill-rule:evenodd;clip-rule:evenodd;stroke-linejoin:round;stroke-miterlimit:2;">
    <g transform="matrix(5.55556,0,0,5.55556,0,0)">
        <path d="M420,3L420,166C420,167.656 418.656,169 417,169L3,169C1.344,169 0,167.656 0,166L0,3C0,1.344 1.344,0 3,0L417,0C418.656,0 420,1.344 420,3Z" style="fill:rgb(232,241,247);"/>
        <g transform="matrix(1,0,0,1,0,-2.08333)">
            <g id="Group-19.svg" serif:id="Group 19.svg" transform="matrix(1,0,0,1,210,111.583)">
                <g transform="matrix(1,0,0,1,-86.5,-18)">
                    <path d="M173,18C173,27.934 164.934,36 155,36L18,36C8.066,36 0,27.934 0,18C0,8.066 8.066,0 18,0L155,0C164.934,0 173,8.066 173,18Z" style="fill:rgb(203,214,220);"/>
                    <path d="M37.95,14.992L37.95,22.076L36.648,22.076L36.648,14.992L37.95,14.992ZM40.736,17.904L40.736,19.15L33.847,19.15L33.847,17.904L40.736,17.904ZM54.631,23L53.049,23L52.167,20.578L48.289,20.578L47.407,23L45.867,23L49.353,13.76L51.145,13.76L54.631,23ZM48.709,19.36L51.747,19.36L50.235,15.048L48.709,19.36ZM56.816,14.824C56.489,14.824 56.237,14.745 56.06,14.586C55.892,14.418 55.807,14.185 55.807,13.886C55.807,13.587 55.892,13.359 56.06,13.2C56.237,13.041 56.489,12.962 56.816,12.962C57.133,12.962 57.376,13.041 57.544,13.2C57.721,13.359 57.81,13.587 57.81,13.886C57.81,14.185 57.721,14.418 57.544,14.586C57.376,14.745 57.133,14.824 56.816,14.824ZM57.557,16L57.557,23.616C57.557,24.213 57.446,24.685 57.222,25.03C57.007,25.385 56.722,25.637 56.368,25.786C56.022,25.935 55.654,26.01 55.262,26.01C54.944,26.01 54.655,25.968 54.394,25.884C54.132,25.8 53.913,25.688 53.736,25.548L53.987,24.344C54.118,24.456 54.277,24.549 54.464,24.624C54.641,24.699 54.842,24.736 55.066,24.736C55.364,24.736 55.602,24.638 55.78,24.442C55.966,24.255 56.06,23.933 56.06,23.476L56.06,16L57.557,16ZM62.939,15.86C63.621,15.86 64.223,16.005 64.745,16.294C65.268,16.583 65.674,17.003 65.963,17.554C66.262,18.095 66.411,18.744 66.411,19.5C66.411,20.256 66.262,20.909 65.963,21.46C65.674,22.001 65.268,22.417 64.745,22.706C64.223,22.995 63.621,23.14 62.939,23.14C62.258,23.14 61.656,22.995 61.133,22.706C60.611,22.417 60.2,22.001 59.901,21.46C59.603,20.909 59.453,20.256 59.453,19.5C59.453,18.744 59.603,18.095 59.901,17.554C60.2,17.003 60.611,16.583 61.133,16.294C61.656,16.005 62.258,15.86 62.939,15.86ZM62.939,17.036C62.519,17.036 62.16,17.134 61.861,17.33C61.572,17.517 61.348,17.792 61.189,18.156C61.031,18.52 60.951,18.968 60.951,19.5C60.951,20.023 61.031,20.471 61.189,20.844C61.348,21.208 61.572,21.488 61.861,21.684C62.16,21.871 62.519,21.964 62.939,21.964C63.359,21.964 63.714,21.871 64.003,21.684C64.293,21.488 64.517,21.208 64.675,20.844C64.834,20.471 64.913,20.023 64.913,19.5C64.913,18.968 64.834,18.52 64.675,18.156C64.517,17.792 64.293,17.517 64.003,17.33C63.714,17.134 63.359,17.036 62.939,17.036ZM70.788,23.14C70.331,23.14 69.906,23.056 69.514,22.888C69.131,22.72 68.823,22.449 68.59,22.076C68.357,21.703 68.24,21.217 68.24,20.62L68.24,16L69.738,16L69.738,20.242C69.738,20.877 69.873,21.315 70.144,21.558C70.415,21.791 70.793,21.908 71.278,21.908C71.511,21.908 71.735,21.871 71.95,21.796C72.174,21.712 72.375,21.586 72.552,21.418C72.729,21.241 72.865,21.017 72.958,20.746C73.061,20.475 73.112,20.158 73.112,19.794L73.112,16L74.61,16L74.61,23L73.294,23L73.224,21.866C72.981,22.305 72.655,22.627 72.244,22.832C71.833,23.037 71.348,23.14 70.788,23.14ZM78.994,13.942L78.994,20.9C78.994,21.245 79.083,21.497 79.26,21.656C79.447,21.815 79.694,21.894 80.002,21.894C80.254,21.894 80.473,21.857 80.66,21.782C80.847,21.698 81.019,21.586 81.178,21.446L81.514,22.538C81.299,22.725 81.033,22.874 80.716,22.986C80.408,23.089 80.063,23.14 79.68,23.14C79.279,23.14 78.91,23.075 78.574,22.944C78.238,22.813 77.977,22.603 77.79,22.314C77.603,22.015 77.505,21.628 77.496,21.152L77.496,14.362L78.994,13.942ZM81.402,16L81.402,17.176L76.152,17.176L76.152,16L81.402,16ZM85.964,23.14C85.264,23.14 84.648,22.995 84.116,22.706C83.584,22.417 83.168,22.001 82.87,21.46C82.58,20.909 82.436,20.256 82.436,19.5C82.436,18.744 82.58,18.095 82.87,17.554C83.168,17.003 83.579,16.583 84.102,16.294C84.624,16.005 85.217,15.86 85.88,15.86C86.561,15.86 87.14,16 87.616,16.28C88.092,16.56 88.456,16.943 88.708,17.428C88.96,17.913 89.086,18.464 89.086,19.08C89.086,19.248 89.081,19.407 89.072,19.556C89.062,19.705 89.048,19.836 89.03,19.948L83.402,19.948L83.402,18.8L88.372,18.8L87.63,19.024C87.63,18.389 87.471,17.904 87.154,17.568C86.836,17.223 86.402,17.05 85.852,17.05C85.45,17.05 85.1,17.143 84.802,17.33C84.503,17.517 84.274,17.797 84.116,18.17C83.957,18.534 83.878,18.982 83.878,19.514C83.878,20.037 83.962,20.48 84.13,20.844C84.298,21.208 84.536,21.483 84.844,21.67C85.152,21.857 85.516,21.95 85.936,21.95C86.402,21.95 86.78,21.861 87.07,21.684C87.359,21.507 87.588,21.259 87.756,20.942L88.946,21.502C88.778,21.838 88.549,22.132 88.26,22.384C87.98,22.627 87.644,22.813 87.252,22.944C86.86,23.075 86.43,23.14 85.964,23.14ZM90.977,23L90.977,16L92.251,16L92.391,17.26C92.578,16.803 92.853,16.457 93.217,16.224C93.591,15.981 94.048,15.86 94.589,15.86C94.729,15.86 94.869,15.874 95.009,15.902C95.149,15.921 95.266,15.953 95.359,16L95.149,17.316C95.047,17.279 94.93,17.251 94.799,17.232C94.678,17.204 94.51,17.19 94.295,17.19C94.006,17.19 93.721,17.269 93.441,17.428C93.161,17.577 92.928,17.806 92.741,18.114C92.564,18.422 92.475,18.814 92.475,19.29L92.475,23L90.977,23ZM101.026,25.94L101.026,16L102.356,16L102.468,17.96L102.272,17.722C102.384,17.358 102.557,17.036 102.79,16.756C103.024,16.476 103.313,16.257 103.658,16.098C104.013,15.939 104.4,15.86 104.82,15.86C105.39,15.86 105.908,16.005 106.374,16.294C106.841,16.583 107.21,16.999 107.48,17.54C107.751,18.072 107.886,18.721 107.886,19.486C107.886,20.251 107.746,20.909 107.466,21.46C107.196,22.001 106.822,22.417 106.346,22.706C105.88,22.995 105.357,23.14 104.778,23.14C104.181,23.14 103.672,22.986 103.252,22.678C102.832,22.361 102.534,21.959 102.356,21.474L102.524,21.236L102.524,25.94L101.026,25.94ZM104.456,21.922C105.063,21.922 105.534,21.707 105.87,21.278C106.216,20.849 106.388,20.256 106.388,19.5C106.388,18.744 106.22,18.151 105.884,17.722C105.548,17.283 105.082,17.064 104.484,17.064C104.092,17.064 103.747,17.167 103.448,17.372C103.159,17.568 102.93,17.848 102.762,18.212C102.604,18.567 102.524,18.996 102.524,19.5C102.524,19.995 102.604,20.424 102.762,20.788C102.921,21.152 103.145,21.432 103.434,21.628C103.724,21.824 104.064,21.922 104.456,21.922ZM109.804,23L109.804,12.85L111.302,12.85L111.302,17.12C111.535,16.681 111.848,16.364 112.24,16.168C112.641,15.963 113.084,15.86 113.57,15.86C114.064,15.86 114.508,15.958 114.9,16.154C115.301,16.341 115.618,16.625 115.852,17.008C116.085,17.391 116.202,17.876 116.202,18.464L116.202,23L114.704,23L114.704,18.94C114.704,18.249 114.559,17.769 114.27,17.498C113.99,17.227 113.635,17.092 113.206,17.092C112.907,17.092 112.608,17.167 112.31,17.316C112.02,17.456 111.778,17.689 111.582,18.016C111.395,18.333 111.302,18.763 111.302,19.304L111.302,23L109.804,23ZM121.51,15.86C122.191,15.86 122.793,16.005 123.316,16.294C123.838,16.583 124.244,17.003 124.534,17.554C124.832,18.095 124.982,18.744 124.982,19.5C124.982,20.256 124.832,20.909 124.534,21.46C124.244,22.001 123.838,22.417 123.316,22.706C122.793,22.995 122.191,23.14 121.51,23.14C120.828,23.14 120.226,22.995 119.704,22.706C119.181,22.417 118.77,22.001 118.472,21.46C118.173,20.909 118.024,20.256 118.024,19.5C118.024,18.744 118.173,18.095 118.472,17.554C118.77,17.003 119.181,16.583 119.704,16.294C120.226,16.005 120.828,15.86 121.51,15.86ZM121.51,17.036C121.09,17.036 120.73,17.134 120.432,17.33C120.142,17.517 119.918,17.792 119.76,18.156C119.601,18.52 119.522,18.968 119.522,19.5C119.522,20.023 119.601,20.471 119.76,20.844C119.918,21.208 120.142,21.488 120.432,21.684C120.73,21.871 121.09,21.964 121.51,21.964C121.93,21.964 122.284,21.871 122.574,21.684C122.863,21.488 123.087,21.208 123.246,20.844C123.404,20.471 123.484,20.023 123.484,19.5C123.484,18.968 123.404,18.52 123.246,18.156C123.087,17.792 122.863,17.517 122.574,17.33C122.284,17.134 121.93,17.036 121.51,17.036ZM128.814,13.942L128.814,20.9C128.814,21.245 128.903,21.497 129.08,21.656C129.267,21.815 129.514,21.894 129.822,21.894C130.074,21.894 130.294,21.857 130.48,21.782C130.667,21.698 130.84,21.586 130.998,21.446L131.334,22.538C131.12,22.725 130.854,22.874 130.536,22.986C130.228,23.089 129.883,23.14 129.5,23.14C129.099,23.14 128.73,23.075 128.394,22.944C128.058,22.813 127.797,22.603 127.61,22.314C127.424,22.015 127.326,21.628 127.316,21.152L127.316,14.362L128.814,13.942ZM131.222,16L131.222,17.176L125.972,17.176L125.972,16L131.222,16ZM135.742,15.86C136.423,15.86 137.025,16.005 137.548,16.294C138.071,16.583 138.477,17.003 138.766,17.554C139.065,18.095 139.214,18.744 139.214,19.5C139.214,20.256 139.065,20.909 138.766,21.46C138.477,22.001 138.071,22.417 137.548,22.706C137.025,22.995 136.423,23.14 135.742,23.14C135.061,23.14 134.459,22.995 133.936,22.706C133.413,22.417 133.003,22.001 132.704,21.46C132.405,20.909 132.256,20.256 132.256,19.5C132.256,18.744 132.405,18.095 132.704,17.554C133.003,17.003 133.413,16.583 133.936,16.294C134.459,16.005 135.061,15.86 135.742,15.86ZM135.742,17.036C135.322,17.036 134.963,17.134 134.664,17.33C134.375,17.517 134.151,17.792 133.992,18.156C133.833,18.52 133.754,18.968 133.754,19.5C133.754,20.023 133.833,20.471 133.992,20.844C134.151,21.208 134.375,21.488 134.664,21.684C134.963,21.871 135.322,21.964 135.742,21.964C136.162,21.964 136.517,21.871 136.806,21.684C137.095,21.488 137.319,21.208 137.478,20.844C137.637,20.471 137.716,20.023 137.716,19.5C137.716,18.968 137.637,18.52 137.478,18.156C137.319,17.792 137.095,17.517 136.806,17.33C136.517,17.134 136.162,17.036 135.742,17.036Z" style="fill:rgb(48,102,133);fill-rule:nonzero;"/>
                </g>
            </g>
            <g id="Vector.svg" transform="matrix(1,0,0,1,210,53.3889)">
                <g transform="matrix(1,0,0,1,-35,-30.5)">
                    <path d="M60.552,6.888C61.723,6.888 62.681,7.846 62.681,9.017L62.681,51.577L62.016,50.712L43.917,27.289C43.318,26.504 42.373,26.052 41.388,26.052C40.403,26.052 39.472,26.504 38.859,27.289L27.814,41.582L23.755,35.9C23.156,35.061 22.198,34.569 21.16,34.569C20.121,34.569 19.163,35.061 18.564,35.913L7.918,50.818L7.319,51.643L7.319,9.017C7.319,7.846 8.277,6.888 9.448,6.888L60.552,6.888ZM9.448,0.5C4.75,0.5 0.931,4.319 0.931,9.017L0.931,51.603C0.931,56.301 4.75,60.121 9.448,60.121L60.552,60.121C65.249,60.121 69.069,56.301 69.069,51.603L69.069,9.017C69.069,4.319 65.249,0.5 60.552,0.5L9.448,0.5ZM20.095,26.052C20.934,26.052 21.764,25.887 22.539,25.566C23.314,25.244 24.019,24.774 24.612,24.181C25.205,23.588 25.676,22.883 25.997,22.108C26.318,21.333 26.483,20.503 26.483,19.664C26.483,18.825 26.318,17.994 25.997,17.219C25.676,16.444 25.205,15.74 24.612,15.147C24.019,14.554 23.314,14.083 22.539,13.762C21.764,13.441 20.934,13.276 20.095,13.276C19.256,13.276 18.425,13.441 17.65,13.762C16.875,14.083 16.171,14.554 15.578,15.147C14.985,15.74 14.514,16.444 14.193,17.219C13.872,17.994 13.707,18.825 13.707,19.664C13.707,20.503 13.872,21.333 14.193,22.108C14.514,22.883 14.985,23.588 15.578,24.181C16.171,24.774 16.875,25.244 17.65,25.566C18.425,25.887 19.256,26.052 20.095,26.052Z" style="fill:rgb(185,197,204);fill-rule:nonzero;"/>
                </g>
            </g>
            <g id="jpg--png-_-4mo-max.svg" serif:id="jpg, png _ 4mo max.svg" transform="matrix(1,0,0,1,210,144.778)">
                <g transform="matrix(1,0,0,1,-47.5,-5.5)">
                    <path d="M2.606,2.04C2.426,2.04 2.28,1.987 2.166,1.88C2.06,1.767 2.006,1.62 2.006,1.44C2.006,1.26 2.06,1.117 2.166,1.01C2.28,0.897 2.426,0.84 2.606,0.84C2.786,0.84 2.93,0.897 3.036,1.01C3.15,1.117 3.206,1.26 3.206,1.44C3.206,1.62 3.15,1.767 3.036,1.88C2.93,1.987 2.786,2.04 2.606,2.04ZM3.006,3L3.006,8.51C3.006,8.923 2.926,9.25 2.766,9.49C2.606,9.73 2.41,9.9 2.176,10C1.943,10.1 1.713,10.15 1.486,10.15C1.28,10.15 1.09,10.117 0.916,10.05C0.743,9.99 0.6,9.913 0.486,9.82L0.656,9.06C0.75,9.147 0.866,9.22 1.006,9.28C1.146,9.34 1.303,9.37 1.476,9.37C1.69,9.37 1.863,9.3 1.996,9.16C2.136,9.02 2.206,8.777 2.206,8.43L2.206,3L3.006,3ZM4.863,10.1L4.863,3L5.563,3L5.633,4.22L5.523,4.08C5.609,3.847 5.739,3.643 5.913,3.47C6.086,3.29 6.296,3.15 6.543,3.05C6.789,2.95 7.056,2.9 7.343,2.9C7.749,2.9 8.123,3.003 8.463,3.21C8.809,3.417 9.086,3.713 9.293,4.1C9.499,4.487 9.603,4.953 9.603,5.5C9.603,6.04 9.496,6.507 9.283,6.9C9.076,7.287 8.799,7.583 8.453,7.79C8.106,7.997 7.726,8.1 7.313,8.1C6.899,8.1 6.536,8 6.223,7.8C5.916,7.593 5.696,7.333 5.563,7.02L5.663,6.87L5.663,10.1L4.863,10.1ZM7.233,7.4C7.726,7.4 8.109,7.227 8.383,6.88C8.663,6.533 8.803,6.073 8.803,5.5C8.803,4.927 8.666,4.467 8.393,4.12C8.126,3.773 7.749,3.6 7.263,3.6C6.943,3.6 6.663,3.68 6.423,3.84C6.183,3.993 5.996,4.213 5.863,4.5C5.729,4.78 5.663,5.113 5.663,5.5C5.663,5.88 5.726,6.213 5.853,6.5C5.986,6.787 6.169,7.01 6.403,7.17C6.643,7.323 6.919,7.4 7.233,7.4ZM15.342,2.08L15.522,2.79L15.452,2.79C15.126,2.79 14.872,2.857 14.692,2.99C14.519,3.117 14.432,3.323 14.432,3.61L13.942,3.36C13.942,3.1 14.002,2.873 14.122,2.68C14.242,2.487 14.406,2.34 14.612,2.24C14.819,2.133 15.046,2.08 15.292,2.08L15.342,2.08ZM13.822,7.36C14.296,7.36 14.666,7.47 14.932,7.69C15.199,7.903 15.332,8.19 15.332,8.55C15.332,8.877 15.222,9.16 15.002,9.4C14.789,9.64 14.499,9.823 14.132,9.95C13.772,10.083 13.366,10.15 12.912,10.15C12.126,10.15 11.536,10.017 11.142,9.75C10.756,9.483 10.562,9.163 10.562,8.79C10.562,8.523 10.649,8.283 10.822,8.07C11.002,7.863 11.302,7.747 11.722,7.72L11.652,7.87C11.426,7.81 11.232,7.71 11.072,7.57C10.919,7.423 10.842,7.213 10.842,6.94C10.842,6.667 10.942,6.433 11.142,6.24C11.349,6.04 11.652,5.917 12.052,5.87L12.582,6.14L12.482,6.14C12.156,6.173 11.922,6.257 11.782,6.39C11.649,6.517 11.582,6.657 11.582,6.81C11.582,6.997 11.649,7.137 11.782,7.23C11.922,7.317 12.116,7.36 12.362,7.36L13.822,7.36ZM12.902,9.48C13.289,9.48 13.605,9.44 13.852,9.36C14.105,9.28 14.292,9.177 14.412,9.05C14.532,8.923 14.592,8.787 14.592,8.64C14.592,8.46 14.519,8.317 14.372,8.21C14.232,8.103 13.976,8.05 13.602,8.05L12.062,8.05C11.849,8.05 11.669,8.103 11.522,8.21C11.376,8.323 11.302,8.477 11.302,8.67C11.302,8.917 11.442,9.113 11.722,9.26C12.009,9.407 12.402,9.48 12.902,9.48ZM12.832,2.9C13.232,2.9 13.586,2.973 13.892,3.12C14.206,3.26 14.449,3.457 14.622,3.71C14.796,3.963 14.882,4.257 14.882,4.59C14.882,4.917 14.796,5.21 14.622,5.47C14.449,5.723 14.206,5.923 13.892,6.07C13.586,6.21 13.232,6.28 12.832,6.28C12.172,6.28 11.666,6.123 11.312,5.81C10.959,5.49 10.782,5.083 10.782,4.59C10.782,4.257 10.869,3.963 11.042,3.71C11.222,3.457 11.466,3.26 11.772,3.12C12.079,2.973 12.432,2.9 12.832,2.9ZM12.832,3.55C12.486,3.55 12.195,3.647 11.962,3.84C11.729,4.027 11.612,4.277 11.612,4.59C11.612,4.897 11.729,5.147 11.962,5.34C12.195,5.533 12.486,5.63 12.832,5.63C13.179,5.63 13.469,5.533 13.702,5.34C13.935,5.147 14.052,4.897 14.052,4.59C14.052,4.277 13.935,4.027 13.702,3.84C13.469,3.647 13.179,3.55 12.832,3.55ZM16.854,6.8C17.014,6.8 17.148,6.843 17.254,6.93C17.368,7.01 17.454,7.123 17.514,7.27C17.574,7.41 17.604,7.577 17.604,7.77C17.604,7.99 17.564,8.207 17.484,8.42C17.411,8.633 17.294,8.83 17.134,9.01C16.974,9.19 16.768,9.34 16.514,9.46L16.094,9.07C16.274,9.01 16.431,8.927 16.564,8.82C16.704,8.713 16.818,8.593 16.904,8.46C16.991,8.327 17.048,8.19 17.074,8.05L17.034,8.03C17.008,8.05 16.974,8.067 16.934,8.08C16.894,8.093 16.834,8.1 16.754,8.1C16.674,8.1 16.591,8.077 16.504,8.03C16.424,7.983 16.354,7.917 16.294,7.83C16.234,7.737 16.204,7.617 16.204,7.47C16.204,7.35 16.234,7.24 16.294,7.14C16.354,7.033 16.431,6.95 16.524,6.89C16.624,6.83 16.734,6.8 16.854,6.8ZM22.519,10.1L22.519,3L23.219,3L23.289,4.22L23.179,4.08C23.266,3.847 23.395,3.643 23.569,3.47C23.742,3.29 23.952,3.15 24.199,3.05C24.446,2.95 24.712,2.9 24.999,2.9C25.406,2.9 25.779,3.003 26.119,3.21C26.465,3.417 26.742,3.713 26.949,4.1C27.156,4.487 27.259,4.953 27.259,5.5C27.259,6.04 27.152,6.507 26.939,6.9C26.732,7.287 26.456,7.583 26.109,7.79C25.762,7.997 25.382,8.1 24.969,8.1C24.555,8.1 24.192,8 23.879,7.8C23.572,7.593 23.352,7.333 23.219,7.02L23.319,6.87L23.319,10.1L22.519,10.1ZM24.889,7.4C25.382,7.4 25.766,7.227 26.039,6.88C26.319,6.533 26.459,6.073 26.459,5.5C26.459,4.927 26.322,4.467 26.049,4.12C25.782,3.773 25.406,3.6 24.919,3.6C24.599,3.6 24.319,3.68 24.079,3.84C23.839,3.993 23.652,4.213 23.519,4.5C23.386,4.78 23.319,5.113 23.319,5.5C23.319,5.88 23.382,6.213 23.509,6.5C23.642,6.787 23.826,7.01 24.059,7.17C24.299,7.323 24.576,7.4 24.889,7.4ZM28.788,8L28.788,3L29.488,3L29.558,4.12L29.428,4.01C29.535,3.743 29.678,3.53 29.858,3.37C30.038,3.203 30.245,3.083 30.478,3.01C30.718,2.937 30.965,2.9 31.218,2.9C31.578,2.9 31.905,2.97 32.198,3.11C32.492,3.243 32.725,3.45 32.898,3.73C33.078,4.01 33.168,4.367 33.168,4.8L33.168,8L32.368,8L32.368,5.08C32.368,4.527 32.248,4.143 32.008,3.93C31.775,3.71 31.485,3.6 31.138,3.6C30.898,3.6 30.658,3.657 30.418,3.77C30.178,3.883 29.978,4.067 29.818,4.32C29.665,4.573 29.588,4.913 29.588,5.34L29.588,8L28.788,8ZM39.19,2.08L39.37,2.79L39.3,2.79C38.973,2.79 38.72,2.857 38.54,2.99C38.367,3.117 38.28,3.323 38.28,3.61L37.79,3.36C37.79,3.1 37.85,2.873 37.97,2.68C38.09,2.487 38.253,2.34 38.46,2.24C38.667,2.133 38.893,2.08 39.14,2.08L39.19,2.08ZM37.67,7.36C38.143,7.36 38.513,7.47 38.78,7.69C39.047,7.903 39.18,8.19 39.18,8.55C39.18,8.877 39.07,9.16 38.85,9.4C38.637,9.64 38.347,9.823 37.98,9.95C37.62,10.083 37.213,10.15 36.76,10.15C35.973,10.15 35.383,10.017 34.99,9.75C34.603,9.483 34.41,9.163 34.41,8.79C34.41,8.523 34.497,8.283 34.67,8.07C34.85,7.863 35.15,7.747 35.57,7.72L35.5,7.87C35.273,7.81 35.08,7.71 34.92,7.57C34.767,7.423 34.69,7.213 34.69,6.94C34.69,6.667 34.79,6.433 34.99,6.24C35.197,6.04 35.5,5.917 35.9,5.87L36.43,6.14L36.33,6.14C36.003,6.173 35.77,6.257 35.63,6.39C35.497,6.517 35.43,6.657 35.43,6.81C35.43,6.997 35.497,7.137 35.63,7.23C35.77,7.317 35.963,7.36 36.21,7.36L37.67,7.36ZM36.75,9.48C37.137,9.48 37.453,9.44 37.7,9.36C37.953,9.28 38.14,9.177 38.26,9.05C38.38,8.923 38.44,8.787 38.44,8.64C38.44,8.46 38.367,8.317 38.22,8.21C38.08,8.103 37.823,8.05 37.45,8.05L35.91,8.05C35.697,8.05 35.517,8.103 35.37,8.21C35.223,8.323 35.15,8.477 35.15,8.67C35.15,8.917 35.29,9.113 35.57,9.26C35.856,9.407 36.25,9.48 36.75,9.48ZM36.68,2.9C37.08,2.9 37.433,2.973 37.74,3.12C38.053,3.26 38.297,3.457 38.47,3.71C38.643,3.963 38.73,4.257 38.73,4.59C38.73,4.917 38.643,5.21 38.47,5.47C38.297,5.723 38.053,5.923 37.74,6.07C37.433,6.21 37.08,6.28 36.68,6.28C36.02,6.28 35.513,6.123 35.16,5.81C34.807,5.49 34.63,5.083 34.63,4.59C34.63,4.257 34.717,3.963 34.89,3.71C35.07,3.457 35.313,3.26 35.62,3.12C35.927,2.973 36.28,2.9 36.68,2.9ZM36.68,3.55C36.333,3.55 36.043,3.647 35.81,3.84C35.577,4.027 35.46,4.277 35.46,4.59C35.46,4.897 35.577,5.147 35.81,5.34C36.043,5.533 36.333,5.63 36.68,5.63C37.027,5.63 37.317,5.533 37.55,5.34C37.783,5.147 37.9,4.897 37.9,4.59C37.9,4.277 37.783,4.027 37.55,3.84C37.317,3.647 37.027,3.55 36.68,3.55ZM44.26,2.9C44.454,2.9 44.61,2.96 44.73,3.08C44.85,3.2 44.91,3.357 44.91,3.55C44.91,3.743 44.85,3.9 44.73,4.02C44.61,4.14 44.454,4.2 44.26,4.2C44.067,4.2 43.91,4.14 43.79,4.02C43.67,3.9 43.61,3.743 43.61,3.55C43.61,3.357 43.67,3.2 43.79,3.08C43.91,2.96 44.067,2.9 44.26,2.9ZM44.26,6.8C44.454,6.8 44.61,6.86 44.73,6.98C44.85,7.1 44.91,7.257 44.91,7.45C44.91,7.643 44.85,7.8 44.73,7.92C44.61,8.04 44.454,8.1 44.26,8.1C44.067,8.1 43.91,8.04 43.79,7.92C43.67,7.8 43.61,7.643 43.61,7.45C43.61,7.257 43.67,7.1 43.79,6.98C43.91,6.86 44.067,6.8 44.26,6.8ZM52.807,8L52.807,6.27L49.588,6.27L49.588,5.68L52.597,1.4L53.608,1.4L53.608,5.58L54.778,5.58L54.778,6.27L53.608,6.27L53.608,8L52.807,8ZM50.438,5.58L52.807,5.58L52.807,3.11C52.807,2.937 52.811,2.76 52.818,2.58C52.831,2.4 52.841,2.223 52.847,2.05L52.828,2.05C52.748,2.217 52.644,2.403 52.518,2.61C52.391,2.817 52.274,2.997 52.167,3.15L50.438,5.58ZM56.191,8L56.191,3L56.891,3L56.941,3.78C57.121,3.473 57.354,3.25 57.641,3.11C57.934,2.97 58.234,2.9 58.541,2.9C58.894,2.9 59.227,2.98 59.541,3.14C59.854,3.3 60.094,3.547 60.261,3.88C60.367,3.653 60.517,3.47 60.711,3.33C60.904,3.183 61.114,3.077 61.341,3.01C61.574,2.937 61.794,2.9 62.001,2.9C62.321,2.9 62.624,2.967 62.911,3.1C63.204,3.233 63.444,3.44 63.631,3.72C63.817,4 63.911,4.36 63.911,4.8L63.911,8L63.111,8L63.111,4.88C63.111,4.427 62.997,4.1 62.771,3.9C62.544,3.7 62.264,3.6 61.931,3.6C61.671,3.6 61.427,3.663 61.201,3.79C60.974,3.917 60.791,4.103 60.651,4.35C60.517,4.597 60.451,4.9 60.451,5.26L60.451,8L59.651,8L59.651,4.88C59.651,4.427 59.537,4.1 59.311,3.9C59.084,3.7 58.804,3.6 58.471,3.6C58.251,3.6 58.024,3.66 57.791,3.78C57.564,3.893 57.374,4.077 57.221,4.33C57.067,4.583 56.991,4.917 56.991,5.33L56.991,8L56.191,8ZM67.792,2.9C68.265,2.9 68.682,3.003 69.042,3.21C69.409,3.417 69.695,3.717 69.902,4.11C70.109,4.497 70.212,4.96 70.212,5.5C70.212,6.04 70.109,6.507 69.902,6.9C69.695,7.287 69.409,7.583 69.042,7.79C68.682,7.997 68.265,8.1 67.792,8.1C67.325,8.1 66.909,7.997 66.542,7.79C66.175,7.583 65.889,7.287 65.682,6.9C65.475,6.507 65.372,6.04 65.372,5.5C65.372,4.96 65.475,4.497 65.682,4.11C65.889,3.717 66.175,3.417 66.542,3.21C66.909,3.003 67.325,2.9 67.792,2.9ZM67.792,3.59C67.452,3.59 67.162,3.667 66.922,3.82C66.682,3.973 66.495,4.193 66.362,4.48C66.235,4.76 66.172,5.1 66.172,5.5C66.172,5.893 66.235,6.233 66.362,6.52C66.495,6.807 66.682,7.027 66.922,7.18C67.162,7.333 67.452,7.41 67.792,7.41C68.132,7.41 68.422,7.333 68.662,7.18C68.902,7.027 69.085,6.807 69.212,6.52C69.345,6.233 69.412,5.893 69.412,5.5C69.412,5.1 69.345,4.76 69.212,4.48C69.085,4.193 68.902,3.973 68.662,3.82C68.422,3.667 68.132,3.59 67.792,3.59ZM75.126,8L75.126,3L75.826,3L75.876,3.78C76.056,3.473 76.29,3.25 76.576,3.11C76.87,2.97 77.17,2.9 77.476,2.9C77.83,2.9 78.163,2.98 78.476,3.14C78.79,3.3 79.03,3.547 79.196,3.88C79.303,3.653 79.453,3.47 79.646,3.33C79.84,3.183 80.05,3.077 80.276,3.01C80.51,2.937 80.73,2.9 80.936,2.9C81.256,2.9 81.56,2.967 81.846,3.1C82.14,3.233 82.38,3.44 82.566,3.72C82.753,4 82.846,4.36 82.846,4.8L82.846,8L82.046,8L82.046,4.88C82.046,4.427 81.933,4.1 81.706,3.9C81.48,3.7 81.2,3.6 80.866,3.6C80.606,3.6 80.363,3.663 80.136,3.79C79.91,3.917 79.726,4.103 79.586,4.35C79.453,4.597 79.386,4.9 79.386,5.26L79.386,8L78.586,8L78.586,4.88C78.586,4.427 78.473,4.1 78.246,3.9C78.02,3.7 77.74,3.6 77.406,3.6C77.186,3.6 76.96,3.66 76.726,3.78C76.5,3.893 76.31,4.077 76.156,4.33C76.003,4.583 75.926,4.917 75.926,5.33L75.926,8L75.126,8ZM87.578,4.77C87.578,4.397 87.478,4.11 87.278,3.91C87.078,3.703 86.794,3.6 86.428,3.6C86.081,3.6 85.787,3.677 85.548,3.83C85.308,3.977 85.131,4.217 85.018,4.55L84.368,4.15C84.501,3.777 84.748,3.477 85.108,3.25C85.468,3.017 85.914,2.9 86.448,2.9C86.808,2.9 87.134,2.963 87.428,3.09C87.721,3.21 87.951,3.397 88.118,3.65C88.291,3.897 88.378,4.217 88.378,4.61L88.378,7.03C88.378,7.27 88.504,7.39 88.757,7.39C88.884,7.39 89.007,7.373 89.128,7.34L89.088,7.97C88.954,8.037 88.781,8.07 88.568,8.07C88.374,8.07 88.201,8.033 88.048,7.96C87.894,7.887 87.774,7.777 87.688,7.63C87.601,7.477 87.558,7.287 87.558,7.06L87.558,6.96L87.757,6.99C87.678,7.25 87.541,7.463 87.348,7.63C87.154,7.79 86.938,7.91 86.698,7.99C86.458,8.063 86.221,8.1 85.988,8.1C85.694,8.1 85.421,8.05 85.168,7.95C84.914,7.85 84.711,7.7 84.558,7.5C84.411,7.293 84.338,7.04 84.338,6.74C84.338,6.367 84.461,6.06 84.708,5.82C84.961,5.573 85.311,5.407 85.757,5.32L87.738,4.93L87.738,5.59L86.128,5.92C85.801,5.987 85.558,6.08 85.397,6.2C85.238,6.32 85.158,6.487 85.158,6.7C85.158,6.907 85.238,7.077 85.397,7.21C85.564,7.337 85.798,7.4 86.098,7.4C86.291,7.4 86.474,7.377 86.647,7.33C86.828,7.277 86.988,7.2 87.128,7.1C87.268,6.993 87.378,6.863 87.458,6.71C87.537,6.55 87.578,6.363 87.578,6.15L87.578,4.77ZM90.802,3L92.292,5.09L92.342,5.16L94.392,8L93.412,8L91.862,5.83L91.772,5.72L89.802,3L90.802,3ZM94.362,3L92.382,5.67L92.332,5.67L90.612,8L89.682,8L91.862,5.13L91.922,5.13L93.422,3L94.362,3Z" style="fill:rgb(68,68,68);fill-rule:nonzero;"/>
                </g>
            </g>
        </g>
    </g>
</svg>
